<svg id="Layer_1" data-name="Layer 1" xmlns="http://www.w3.org/2000/svg" viewBox="0 0 186.13 41.11"><defs><style>.cls-1{fill:#010101;}.cls-2{fill:#f6e400;}</style></defs><title>erlogo</title><path class="cls-1" d="M25.89,92.67h-13v6.17H25.46L25.19,102H12.85v5.87h13l-.37,3.37h-17V89.14h16.9Z" transform="translate(-8.47 -79.14)"/><path class="cls-1" d="M34.13,106.77l-1.43,4.47H28.08l7.26-22.1h9.43l7.2,22.1H47.35l-1.43-4.47Zm.94-3.16H45L41.51,92.37H38.56Z" transform="translate(-8.47 -79.14)"/><path class="cls-1" d="M59.42,92.58c-1,0-1.22.21-1.22,1.12v6.23h11c2.67,0,3.28,1.07,3.28,3.23v5.56c0,1.43-1.15,2.52-3.07,2.52H54.8l-.58-3.37H67.05c1.06,0,1.15-.52,1.15-1.25v-2.4c0-.94-.15-1.18-1.24-1.18H56.2a2.13,2.13,0,0,1-2.34-2.35v-9c0-1.49,1.12-2.59,3-2.59H69.39c1.92,0,2.92,1,2.92,2.59V96H68.24V93.64c0-.91-.22-1.06-1.22-1.06Z" transform="translate(-8.47 -79.14)"/><path class="cls-1" d="M107.19,82.66,101,113.26a4.43,4.43,0,0,1-4.71,3.68H80l-1.37-5.24H93c1.46,0,1.93-.19,2.21-1.46l.76-3.49H82.06c-1.65,0-3.77-.52-4.43-3.91L73,82.66h6.88l3.49,17.63c.19,1.13.37,1.46,1.84,1.46H96.87l3.44-19.09Z" transform="translate(-8.47 -79.14)"/><path class="cls-2" d="M128.75,111.24h-4.56l-.27-4.71c-.15-2.4-.48-3.52-3.19-3.52h-7.51v8.23h-4.38V89.14h15.93c2.89,0,3.74,1.52,3.74,3.68V99c0,1.16-.94,2.8-3.62,2.77,2,.09,3.29,1.12,3.38,2.86ZM124.23,93.7c0-.85-.4-1.21-1.22-1.21h-9.79v7.35h9.7c1.43,0,1.31-.85,1.31-1.52Z" transform="translate(-8.47 -79.14)"/><path class="cls-2" d="M149.21,92.67h-13v6.17h12.62l-.28,3.16H136.17v5.87h13l-.36,3.37h-17V89.14h16.9Z" transform="translate(-8.47 -79.14)"/><path class="cls-2" d="M172.44,111.24h-4.1V108.9L156.24,96v15.23h-4.08V89.14h3.5l12.68,14v-14h4.1Z" transform="translate(-8.47 -79.14)"/><path class="cls-2" d="M193.84,92.67h-7v18.57h-4.41V92.67h-7.6l.76-3.53h19Z" transform="translate(-8.47 -79.14)"/><polygon class="cls-2" points="73.33 3.6 74.72 10 80.72 10 82.53 3.6 73.33 3.6"/><polygon class="cls-2" points="84.33 3.6 82.53 10 88.72 10 90.13 3.6 84.33 3.6"/><polygon class="cls-2" points="75.33 12.4 76.72 18.8 78.72 18.8 80.33 12.4 75.33 12.4"/><polygon class="cls-2" points="81.53 13.2 80.33 18.8 86.33 18.8 88.13 12.4 81.72 12.4 81.53 13.2"/><polygon class="cls-1" points="105.33 4.4 91.72 4.41 92 0.2 105.33 0 105.33 4.4"/><path class="cls-2" d="M86.23,117.54a2.7,2.7,0,1,1-5.4,0,3,3,0,0,1,0-.42,2.7,2.7,0,0,1,5.33,0h0C86.21,117.27,86.23,117.4,86.23,117.54Z" transform="translate(-8.47 -79.14)"/><path class="cls-2" d="M99.43,117.54a2.7,2.7,0,1,1-5.4,0,3,3,0,0,1,0-.42,2.7,2.7,0,0,1,5.33,0h0C99.41,117.27,99.43,117.4,99.43,117.54Z" transform="translate(-8.47 -79.14)"/><circle class="cls-1" cx="88.33" cy="38.4" r="0.8"/><circle class="cls-1" cx="75.13" cy="38.4" r="0.8"/></svg>