<?xml version="1.0" encoding="utf-8"?>
<!-- Generator: Adobe Illustrator 24.0.0, SVG Export Plug-In . SVG Version: 6.00 Build 0)  -->
<svg version="1.1" id="Layer_1" xmlns="http://www.w3.org/2000/svg" xmlns:xlink="http://www.w3.org/1999/xlink" x="0px" y="0px"
	 width="133px" height="46px" viewBox="0 0 133 46" style="enable-background:new 0 0 133 46;" xml:space="preserve">
<style type="text/css">
	.st0{fill:#F5E300;}
</style>
<g>
	<path d="M16.4,19H7.7v4.1h8.4l-0.2,2.1H7.7v3.9h8.6l-0.2,2.2H4.8V16.7H16L16.4,19z"/>
	<path d="M21.8,28.4l-0.9,3h-3.1l4.8-14.6h6.2l4.8,14.6h-3.1l-0.9-3H21.8z M22.5,26.3H29l-2.3-7.5h-2L22.5,26.3z"/>
	<path d="M38.6,19c-0.6,0-0.8,0.1-0.8,0.7v4.1H45c1.8,0,2.2,0.7,2.2,2.1v3.7c0,0.9-0.8,1.7-2,1.7h-9.6l-0.4-2.2h8.5
		c0.7,0,0.8-0.3,0.8-0.8v-1.6c0-0.6-0.1-0.8-0.8-0.8h-7.1c-0.9,0-1.6-0.5-1.6-1.6v-5.9c0-1,0.7-1.7,2-1.7h8.3c1.3,0,1.9,0.7,1.9,1.7
		v2.8h-2.7v-1.5c0-0.6-0.1-0.7-0.8-0.7H38.6z"/>
	<path d="M70.2,12.4l-4.1,20.3c-0.3,1.5-1.4,2.4-3.1,2.4H52.2l-0.9-3.5h9.5c1,0,1.3-0.1,1.5-1l0.5-2.3h-9.2c-1.1,0-2.5-0.3-2.9-2.6
		l-3.1-13.4h4.6l2.3,11.7c0.1,0.7,0.2,1,1.2,1h7.7l2.3-12.7H70.2z"/>
	<path class="st0" d="M84.5,31.3h-3l-0.2-3.1c-0.1-1.6-0.3-2.3-2.1-2.3h-5v5.5h-2.9V16.7h10.6c1.9,0,2.5,1,2.5,2.4v4.1
		c0,0.8-0.6,1.9-2.4,1.8c1.3,0.1,2.2,0.7,2.2,1.9L84.5,31.3z M81.5,19.7c0-0.6-0.3-0.8-0.8-0.8h-6.5v4.9h6.4c0.9,0,0.9-0.6,0.9-1
		V19.7z"/>
	<path class="st0" d="M98.1,19h-8.6v4.1h8.4l-0.2,2.1h-8.2v3.9h8.6l-0.2,2.2H86.5V16.7h11.2L98.1,19z"/>
	<path class="st0" d="M113.5,31.3h-2.7v-1.6l-8-8.5v10.1H100V16.7h2.3l8.4,9.2v-9.2h2.7V31.3z"/>
	<path class="st0" d="M127.7,19H123v12.3h-2.9V19h-5l0.5-2.3h12.6L127.7,19z"/>
	<polygon class="st0" points="53.4,12.4 54.3,16.7 58.3,16.7 59.5,12.4 	"/>
	<polygon class="st0" points="60.7,12.4 59.5,16.7 63.6,16.7 64.6,12.4 	"/>
	<polygon class="st0" points="54.7,18.3 55.7,22.5 57,22.5 58.1,18.3 	"/>
	<polygon class="st0" points="58.9,18.8 58.1,22.5 62,22.5 63.2,18.3 59,18.3 	"/>
	<polygon points="74.6,13 65.6,13 65.8,10.2 74.6,10.1 	"/>
	<g>
		<path class="st0" d="M56.4,35.5c0,1-0.8,1.8-1.8,1.8s-1.8-0.8-1.8-1.8c0-0.1,0-0.2,0-0.3c0.1-0.9,0.9-1.5,1.8-1.5
			c0.9,0,1.6,0.7,1.8,1.5v0h0C56.3,35.3,56.4,35.4,56.4,35.5z"/>
	</g>
	<g>
		<path class="st0" d="M65.1,35.5c0,1-0.8,1.8-1.8,1.8c-1,0-1.8-0.8-1.8-1.8c0-0.1,0-0.2,0-0.3c0.1-0.9,0.9-1.5,1.8-1.5
			c0.9,0,1.6,0.7,1.8,1.5v0h0C65.1,35.3,65.1,35.4,65.1,35.5z"/>
	</g>
	<circle cx="63.4" cy="35.5" r="0.5"/>
	<circle cx="54.6" cy="35.5" r="0.5"/>
</g>
</svg>
